<svg id="Layer_1" data-name="Layer 1" xmlns="http://www.w3.org/2000/svg" viewBox="0 0 128 128"><defs><style>.cls-1{fill:#39ace7;}</style></defs><path class="cls-1" d="M14.82,85A24.59,24.59,0,0,1,39.4,109.6v2.65h4.38V109.6A28.59,28.59,0,0,0,41.5,98.33,29,29,0,0,0,14.82,80.64H12.17V85Z"/><path class="cls-1" d="M14.82,76.26A33.38,33.38,0,0,1,48.16,109.6v2.65h4.38V109.6A37.77,37.77,0,0,0,14.82,71.87H12.17v4.39Z"/><path class="cls-1" d="M14.82,67.49A42.16,42.16,0,0,1,56.93,109.6v2.65h4.38V109.6A46.55,46.55,0,0,0,14.82,63.11H12.17v4.38Z"/><path class="cls-1" d="M88.6,112.25V109.6A24.59,24.59,0,0,1,113.18,85h2.65V80.64h-2.65a29,29,0,0,0-29,29v2.65Z"/><path class="cls-1" d="M79.84,112.25V109.6a33.38,33.38,0,0,1,33.34-33.34h2.65V71.87h-2.65A37.77,37.77,0,0,0,75.46,109.6v2.65Z"/><path class="cls-1" d="M71.07,112.25V109.6a42.16,42.16,0,0,1,42.11-42.11h2.65V63.11h-2.65A46.55,46.55,0,0,0,66.69,109.6v2.65Z"/><path class="cls-1" d="M14.82,67.49A42.16,42.16,0,0,1,56.93,109.6v2.65h4.38V109.6A46.55,46.55,0,0,0,14.82,63.11H12.17v4.38Z"/><path class="cls-1" d="M71.07,112.25V109.6a42.16,42.16,0,0,1,42.11-42.11h2.65V63.11h-2.65A46.55,46.55,0,0,0,66.69,109.6v2.65Z"/><path class="cls-1" d="M103.09,59.31A47.2,47.2,0,0,0,64,102.86,47.17,47.17,0,0,0,24.91,59.31a46.91,46.91,0,0,0,26.18-14A46.82,46.82,0,0,0,64,15.75,46.89,46.89,0,0,0,76.92,45.33,46.88,46.88,0,0,0,103.09,59.31Z"/></svg>