<svg id="Layer_1" data-name="Layer 1" xmlns="http://www.w3.org/2000/svg" viewBox="0 0 256 256"><defs><style>.cls-1{fill:#39ace7;}</style></defs><path class="cls-1" d="M27.79,170.83a50.09,50.09,0,0,1,50.08,50.09v5.39H86.8v-5.39a59.06,59.06,0,0,0-36-54.37,58.6,58.6,0,0,0-23-4.65H22.4v8.93Z"/><path class="cls-1" d="M27.79,153a68,68,0,0,1,67.94,67.95v5.39h8.93v-5.39A77,77,0,0,0,27.79,144H22.4V153Z"/><path class="cls-1" d="M27.79,135.12a85.9,85.9,0,0,1,85.8,85.8v5.39h8.93v-5.39a94.84,94.84,0,0,0-94.73-94.73H22.4v8.93Z"/><path class="cls-1" d="M178.13,226.31v-5.39a50.09,50.09,0,0,1,50.08-50.09h5.39V161.9h-5.39a59,59,0,0,0-59,59v5.39Z"/><path class="cls-1" d="M160.27,226.31v-5.39A68,68,0,0,1,228.21,153h5.39V144h-5.39a77,77,0,0,0-76.87,76.88v5.39Z"/><path class="cls-1" d="M142.41,226.31v-5.39a85.9,85.9,0,0,1,85.8-85.8h5.39v-8.93h-5.39a94.84,94.84,0,0,0-94.73,94.73v5.39Z"/><path class="cls-1" d="M27.79,135.12a85.9,85.9,0,0,1,85.8,85.8v5.39h8.93v-5.39a94.84,94.84,0,0,0-94.73-94.73H22.4v8.93Z"/><path class="cls-1" d="M142.41,226.31v-5.39a85.9,85.9,0,0,1,85.8-85.8h5.39v-8.93h-5.39a94.84,94.84,0,0,0-94.73,94.73v5.39Z"/><path class="cls-1" d="M207.65,118.44A96.15,96.15,0,0,0,128,207.18a95.49,95.49,0,0,0-26.31-60.27,95.54,95.54,0,0,0-53.35-28.47A95.6,95.6,0,0,0,101.7,90,95.49,95.49,0,0,0,128,29.69a96.15,96.15,0,0,0,79.64,88.75Z"/></svg>