<svg id="Layer_1" data-name="Layer 1" xmlns="http://www.w3.org/2000/svg" viewBox="0 0 512 512"><defs><style>.cls-1{fill:#39ace7;}</style></defs><path class="cls-1" d="M33.14,351.25a111.4,111.4,0,0,1,111.38,111.4v12h19.85v-12a130.4,130.4,0,0,0-10.31-51.1A131.16,131.16,0,0,0,33.14,331.4h-12v19.85Z"/><path class="cls-1" d="M33.14,311.53c83.31,0,151.1,67.8,151.1,151.12v12h19.85v-12c0-94.28-76.69-171-170.95-171h-12v19.85Z"/><path class="cls-1" d="M33.14,271.83C138.35,271.83,224,357.42,224,462.65v12h19.86v-12C243.81,346.48,149.29,252,33.14,252h-12v19.87Z"/><path class="cls-1" d="M367.48,474.62v-12a111.4,111.4,0,0,1,111.38-111.4h12V331.4h-12A131.11,131.11,0,0,0,347.63,462.65v12Z"/><path class="cls-1" d="M327.76,474.62v-12c0-83.32,67.79-151.12,151.1-151.12h12V291.68h-12c-94.26,0-170.95,76.69-170.95,171v12Z"/><path class="cls-1" d="M288.05,474.62v-12c0-105.23,85.6-190.82,190.81-190.82h12V252h-12c-116.16,0-210.67,94.52-210.67,210.69v12Z"/><path class="cls-1" d="M33.14,271.83C138.35,271.83,224,357.42,224,462.65v12h19.86v-12C243.81,346.48,149.29,252,33.14,252h-12v19.87Z"/><path class="cls-1" d="M288.05,474.62v-12c0-105.23,85.6-190.82,190.81-190.82h12V252h-12c-116.16,0-210.67,94.52-210.67,210.69v12Z"/><path class="cls-1" d="M433.13,234.73A213.83,213.83,0,0,0,256,432.09a212.36,212.36,0,0,0-58.5-134A212.62,212.62,0,0,0,78.87,234.73a212.57,212.57,0,0,0,118.65-63.31,212.36,212.36,0,0,0,58.5-134,212.32,212.32,0,0,0,58.51,134A212.53,212.53,0,0,0,433.13,234.73Z"/></svg>