<svg id="Layer_1" data-name="Layer 1" xmlns="http://www.w3.org/2000/svg" viewBox="0 0 1280 321.49"><defs><style>.cls-1,.cls-2{fill:#39ace7;}.cls-2{font-size:138.81px;font-family:Montserrat-Regular, Montserrat;}</style></defs><path class="cls-1" d="M132.06,192.2a56.81,56.81,0,0,0-40.25-16.67H86.62v8.61h5.19a48.32,48.32,0,0,1,48.31,48.32v5.19h8.61v-5.19a56.75,56.75,0,0,0-16.67-40.26Z"/><path class="cls-1" d="M91.81,158.31H86.62v8.61h5.19a65.6,65.6,0,0,1,65.53,65.54v5.19H166v-5.19A74.23,74.23,0,0,0,91.81,158.31Z"/><path class="cls-1" d="M263,180a56.86,56.86,0,0,0-34.76,52.45v5.19h8.61v-5.19a48.31,48.31,0,0,1,48.3-48.32h5.2v-8.61h-5.2A56.53,56.53,0,0,0,263,180Z"/><path class="cls-1" d="M211,232.46v5.19h8.61v-5.19a65.61,65.61,0,0,1,65.53-65.54h5.2v-8.61h-5.2A74.23,74.23,0,0,0,211,232.46Z"/><path class="cls-1" d="M91.81,141.08H86.62v8.62h5.19a82.85,82.85,0,0,1,82.76,82.76v5.19h8.61v-5.19A91.48,91.48,0,0,0,91.81,141.08Z"/><path class="cls-1" d="M285.12,141.08a91.48,91.48,0,0,0-91.36,91.38v5.19h8.61v-5.19a82.84,82.84,0,0,1,82.75-82.76h5.2v-8.62Z"/><path class="cls-1" d="M265.29,133.61A92.72,92.72,0,0,1,188.48,48a92.74,92.74,0,0,1-76.83,85.59,92.74,92.74,0,0,1,76.83,85.6,92.72,92.72,0,0,1,76.81-85.6Z"/><text class="cls-2" transform="translate(401.06 238.77)">Data Pearls</text></svg>